<svg xmlns="http://www.w3.org/2000/svg" version="1.1" viewBox="272.32 257.52 207.37 236.97">
 <g fill="#f49e1b">
  <path d="m297.71 490.11 78.289-78.438 78.289 78.438c2.7812 2.8008 6.5625 4.3789 10.508 4.3789s7.7305-1.5781 10.508-4.3789c2.8008-2.7812 4.3789-6.5625 4.3789-10.508 0-3.9453-1.5781-7.7305-4.3789-10.508l-88.797-88.797c-2.7773-2.8008-6.5586-4.3789-10.508-4.3789-3.9453 0-7.7266 1.5781-10.508 4.3789l-88.797 88.797h0.003907c-2.8047 2.7773-4.3789 6.5625-4.3789 10.508 0 3.9453 1.5742 7.7266 4.3789 10.508 2.7773 2.8008 6.5586 4.3789 10.504 4.3789 3.9492 0 7.7305-1.5781 10.508-4.3789z"/>
  <path d="m386.51 261.9c-2.7773-2.8008-6.5586-4.3789-10.508-4.3789-3.9453 0-7.7266 1.5781-10.508 4.3789l-88.797 88.797h0.003907c-2.8047 2.7773-4.3789 6.5625-4.3789 10.508s1.5742 7.7266 4.3789 10.508c2.7773 2.8008 6.5586 4.375 10.504 4.375 3.9492 0 7.7305-1.5742 10.508-4.375l78.289-78.438 78.289 78.438c2.7812 2.8008 6.5625 4.375 10.508 4.375s7.7305-1.5742 10.508-4.375c2.8008-2.7812 4.3789-6.5625 4.3789-10.508s-1.5781-7.7305-4.3789-10.508z"/>
 </g>
</svg>